{"asset":{"generator":"FBX2glTF","version":"2.0"},"scene":0,"buffers":[{"byteLength":35492,"uri":"data:application/octet-stream;base64,"}],"bufferViews":[{"buffer":0,"byteLength":5922,"byteOffset":0,"target":34963},{"buffer":0,"byteLength":11088,"byteOffset":5924,"target":34962},{"buffer":0,"byteLength":11088,"byteOffset":17012,"target":34962},{"buffer":0,"byteLength":7392,"byteOffset":28100,"target":34962}],"scenes":[{"name":"Root Scene","nodes":[0]}],"accessors":[{"componentType":5123,"type":"SCALAR","count":2961,"bufferView":0,"byteOffset":0},{"componentType":5126,"type":"VEC3","count":924,"bufferView":1,"byteOffset":0,"min":[-0.0158041343092918,-0.0149022387340665,-0.00916820764541626],"max":[0.00836221873760223,0.0139609416946769,0.00865377485752106]},{"componentType":5126,"type":"VEC3","count":924,"bufferView":2,"byteOffset":0},{"componentType":5126,"type":"VEC2","count":924,"bufferView":3,"byteOffset":0}],"samplers":[{"wrapS":10497,"wrapT":10497}],"materials":[{"name":"aiStandardSurface1","alphaMode":"OPAQUE","extras":{"fromFBX":{"shadingModel":"Metallic/Roughness","isTruePBR":true}},"pbrMetallicRoughness":{"baseColorFactor":[1,1,1,1],"metallicFactor":0,"roughnessFactor":0},"emissiveFactor":[0,0,0],"doubleSided":false}],"meshes":[{"name":"pCube1","primitives":[{"material":0,"mode":4,"attributes":{"NORMAL":2,"POSITION":1,"TEXCOORD_0":3},"indices":0}]}],"nodes":[{"name":"RootNode","translation":[0,0,0],"rotation":[0,0,0,1],"scale":[1,1,1],"children":[1]},{"name":"pCube1","translation":[0.0129285585135221,0.0045764478854835,0.0471451096236706],"rotation":[0,0,0,1],"scale":[3.03034734725952,1,1],"mesh":0}]}
